<svg viewBox="190.699 217.252 35.713 92.99" xmlns="http://www.w3.org/2000/svg">
  <defs></defs>
  <path style="stroke-width: 2px; fill: rgb(255, 255, 255); stroke: rgb(82, 127, 178);" d="M 196.797 261.419 C 195.578 263.815 190.742 263.221 192.094 260.45 C 193.533 257.501 195.325 254.619 197.712 252.368 C 199.618 250.571 201.884 248.935 204.418 248.268 C 206.855 247.626 209.537 247.882 211.975 248.523 C 214.039 249.066 216.134 250.26 217.577 251.893 C 218.76 253.23 219.44 254.911 219.755 256.786 C 220.084 258.748 219.874 260.796 219.488 262.747 C 219.178 264.313 218.163 267.103 218.163 267.103 L 207.18 295.763 C 207.18 295.763 206.126 298.554 206.166 300.009 C 206.199 301.2 206.536 302.183 207.304 303.075 C 207.853 303.712 208.794 304.026 209.635 304.04 C 210.988 304.062 212.321 303.379 213.435 302.611 C 215.255 301.357 216.74 299.922 217.989 298.098 C 219.217 296.305 220.455 294.097 221.155 293.693 C 222.515 292.908 223.984 293.44 224.668 294.314 C 225.108 295.286 224.058 297.041 223.098 298.629 C 221.979 300.48 220.735 302.303 219.163 303.788 C 217.326 305.524 215.245 307.136 212.883 308.036 C 210.602 308.905 208.029 309.439 205.626 309.009 C 203.253 308.584 200.886 307.379 199.235 305.622 C 197.548 303.827 196.611 301.317 196.186 298.89 C 195.88 297.143 196.096 295.315 196.604 293.587 L 208.372 263.63 C 208.372 263.63 209.491 260.469 209.7 258.818 C 209.845 257.679 210.098 256.427 209.642 255.373 C 209.241 254.446 208.718 253.78 207.469 253.26 C 206.214 252.738 204.631 253.253 203.371 253.812 C 202.009 254.416 200.963 255.615 199.956 256.696 C 198.665 258.082 197.656 259.731 196.797 261.419 Z M 211.937 227.983 C 211.722 227.052 211.668 226.058 211.834 225.117 C 212.038 223.96 212.484 222.813 213.159 221.852 C 213.94 220.74 214.957 219.692 216.194 219.129 C 217.637 218.473 219.361 218.228 220.913 218.549 C 222.219 218.819 223.593 219.484 224.365 220.572 C 225.156 221.686 225.289 223.235 225.155 224.595 C 225.026 225.903 224.438 227.187 223.655 228.243 C 222.725 229.498 221.443 230.549 220.027 231.209 C 218.749 231.805 217.256 232.26 215.871 231.996 C 214.712 231.775 213.65 230.999 212.879 230.106 C 212.373 229.52 212.111 228.737 211.937 227.983 Z"></path>
</svg>
