<svg viewBox="15.542 17.845 45.644 140.047" xmlns="http://www.w3.org/2000/svg">
  <defs></defs>
  <g transform="matrix(0.981757, 0.190146, 0.053018, 1.028853, -414.763123, -239.842041)" style="transform-origin: 452.151px 327.24px;">
    <path d="M 454.299 303.609 C 456.416 303.609 458.159 304.388 459.529 305.944 C 460.899 307.501 461.584 309.151 461.584 310.894 L 459.903 316.125 C 460.65 316.873 461.148 317.931 461.397 319.3 C 461.522 319.923 461.584 320.608 461.584 321.355 C 461.584 323.846 461.304 326.15 460.743 328.267 C 460.183 330.384 459.903 332.75 459.903 335.365 L 459.903 336.86 C 459.903 337.483 459.841 338.199 459.716 339.008 C 459.591 339.818 459.404 340.596 459.155 341.343 C 458.906 342.215 458.657 343.149 458.408 344.145 L 458.408 346.2 C 458.408 347.57 458.19 348.69 457.754 349.562 C 457.319 350.434 456.852 351.555 456.353 352.924 C 456.104 353.921 455.7 354.949 455.139 356.007 C 454.579 357.065 454.299 358.279 454.299 359.649 C 454.299 360.147 454.423 360.801 454.672 361.611 C 454.921 362.421 455.295 363.23 455.793 364.039 C 456.291 364.849 456.883 365.534 457.568 366.094 C 458.253 366.654 459.031 366.934 459.903 366.934 C 460.899 366.934 461.802 366.623 462.611 366 C 463.42 365.378 464.074 364.693 464.573 363.946 C 465.196 363.324 465.849 362.794 466.534 362.358 C 467.219 361.922 467.997 361.704 468.869 361.704 L 472.418 361.704 C 473.165 361.704 473.601 362.078 473.726 362.825 C 473.851 363.573 473.913 364.444 473.913 365.44 C 473.913 365.814 473.352 366.561 472.231 367.682 C 471.11 368.803 469.865 370.017 468.495 371.324 C 467.126 372.632 465.756 373.878 464.386 375.06 C 463.016 376.244 462.082 377.022 461.584 377.395 C 461.21 378.267 460.4 379.762 459.155 381.878 C 457.91 383.996 456.54 386.144 455.046 388.323 C 453.551 390.503 451.963 392.433 450.282 394.114 C 448.601 395.796 447.138 396.636 445.893 396.636 C 445.021 396.636 444.056 396.356 442.997 395.795 C 441.938 395.235 440.973 394.487 440.102 393.553 C 439.23 392.619 438.514 391.654 437.954 390.658 C 437.393 389.662 437.113 388.666 437.113 387.669 L 437.113 384.68 C 437.113 383.684 437.051 382.813 436.926 382.065 C 436.801 381.318 436.366 380.944 435.619 380.944 L 435.619 377.395 L 437.113 372.165 L 437.113 363.385 C 437.113 361.517 437.362 360.023 437.86 358.902 C 438.358 357.782 438.607 356.35 438.607 354.606 L 438.607 352.924 C 438.607 352.053 438.887 350.808 439.448 349.188 C 440.009 347.57 440.6 345.826 441.223 343.958 C 441.846 342.09 442.437 340.253 442.997 338.447 C 443.558 336.642 443.838 335.054 443.838 333.684 C 443.838 332.688 443.433 331.599 442.624 330.415 C 441.814 329.232 440.475 328.64 438.607 328.64 C 437.86 328.64 437.207 328.89 436.646 329.388 C 436.085 329.886 434.498 330.135 431.883 330.135 C 431.634 330.011 431.384 329.699 431.135 329.201 C 430.637 328.454 430.388 327.52 430.388 326.399 L 430.388 323.41 C 430.388 322.29 431.478 320.64 433.657 318.46 C 435.836 316.281 438.327 314.102 441.129 311.922 C 443.931 309.743 446.64 307.813 449.255 306.131 C 451.87 304.45 453.552 303.609 454.299 303.609 Z M 454.859 259.524 C 455.357 259.524 456.011 259.431 456.82 259.244 C 457.63 259.058 458.471 258.871 459.342 258.684 C 460.214 258.498 461.055 258.311 461.864 258.123 C 462.673 257.937 463.265 257.843 463.639 257.843 C 465.382 258.466 466.503 259.525 467.001 261.019 C 467.499 262.513 468.246 264.07 469.243 265.689 C 469.243 266.685 469.336 267.682 469.523 268.678 C 469.71 269.674 469.803 270.608 469.803 271.48 C 469.803 272.227 469.554 273.13 469.056 274.188 C 468.558 275.247 468.309 276.586 468.309 278.204 C 468.06 279.076 467.717 280.135 467.281 281.38 C 466.845 282.626 466.285 283.778 465.6 284.836 C 464.915 285.895 464.106 286.767 463.172 287.451 C 462.238 288.136 461.148 288.354 459.903 288.105 C 458.159 288.105 456.26 287.514 454.205 286.33 C 452.15 285.148 450.625 283.622 449.629 281.754 C 448.757 281.007 448.446 279.886 448.695 278.391 C 448.944 276.897 449.068 275.59 449.068 274.468 C 449.068 271.106 449.628 268.367 450.749 266.249 C 451.87 264.133 453.24 261.891 454.859 259.524 Z" style="stroke-width: 0.999999px; fill: rgb(45, 45, 45);"></path>
    <path d="M 454.302 305.607 C 456.024 305.607 457.033 305.985 458.04 307.274 C 459.234 308.552 459.589 309.366 459.591 310.566 L 457.614 316.715 L 458.076 317.148 L 458.515 317.56 C 459.049 318.006 459.267 318.571 459.44 319.696 C 459.549 320.207 459.587 320.693 459.587 321.353 C 459.587 323.725 459.346 325.776 458.812 327.755 C 458.226 330.009 457.913 332.63 457.906 335.363 L 457.906 336.861 C 457.91 337.396 457.859 337.961 457.742 338.703 C 457.634 339.429 457.46 340.128 457.234 340.792 C 456.981 341.681 456.724 342.647 456.471 343.657 L 456.411 343.897 L 456.411 346.205 C 456.428 347.385 456.31 348.068 455.967 348.669 C 455.504 349.602 454.989 350.835 454.473 352.247 L 454.427 352.393 L 454.415 352.442 C 454.206 353.313 453.882 354.127 453.368 355.081 C 452.722 356.371 452.302 358.047 452.302 359.647 C 452.302 360.331 452.485 361.281 452.763 362.197 C 453.057 363.135 453.543 364.18 454.096 365.09 C 454.686 366.025 455.49 366.964 456.305 367.64 C 457.266 368.39 458.696 368.932 459.906 368.932 C 461.237 368.932 462.762 368.346 463.838 367.58 C 464.759 366.857 465.523 366.053 466.114 365.234 C 466.625 364.723 467.014 364.42 467.612 364.043 C 468.057 363.739 468.299 363.66 468.872 363.702 L 471.835 363.702 C 471.892 364.207 471.916 364.764 471.916 365.438 C 471.916 365.196 471.857 365.232 470.82 366.266 C 469.707 367.377 468.478 368.577 467.116 369.876 C 465.765 371.168 464.431 372.38 463.081 373.545 C 461.725 374.718 460.845 375.452 460.388 375.792 L 459.959 376.113 L 459.853 376.36 L 459.748 376.607 C 459.415 377.395 458.661 378.777 457.434 380.862 C 456.207 382.95 454.874 385.039 453.399 387.19 C 452.277 388.833 451.134 390.284 449.92 391.605 L 449.92 386.261 C 449.972 386.185 450.025 386.109 450.077 386.032 C 451.534 383.909 452.831 381.875 454.04 379.817 C 455.251 377.761 455.946 376.497 456.235 375.801 L 456.343 375.546 L 456.451 375.295 L 456.558 375.046 L 456.663 374.802 L 457.519 374.16 C 457.931 373.856 458.76 373.163 460.103 372.002 C 461.102 371.139 462.083 370.26 463.074 369.335 C 461.766 370.14 459.793 370.901 458.236 370.901 C 456.667 370.901 454.627 370.086 453.417 369.195 C 452.485 368.404 451.413 367.182 450.737 366.131 C 450.456 365.663 450.175 365.132 449.92 364.592 L 449.92 354.135 C 450.376 353.298 450.637 352.671 450.799 351.95 L 450.814 351.89 L 450.892 351.626 C 451.424 350.172 452.015 348.742 452.505 347.75 L 452.544 347.669 L 452.563 347.648 C 452.774 347.401 452.772 347.206 452.741 346.21 L 452.741 343.62 L 452.861 343.14 C 453.118 342.117 453.383 341.12 453.64 340.214 C 453.842 339.63 454.005 339.009 454.093 338.381 C 454.202 337.704 454.244 337.284 454.236 336.849 L 454.236 335.332 C 454.251 332.484 454.595 329.609 455.206 327.223 C 455.711 325.39 455.917 323.579 455.917 321.322 C 455.917 320.734 455.905 320.461 455.816 320.093 C 455.674 319.088 455.835 319.05 455.675 319.146 L 455.658 319.156 L 455.039 318.576 L 454.115 317.711 L 453.652 317.278 L 455.937 310.171 C 455.958 309.661 455.927 309.62 454.921 308.622 L 454.848 308.55 L 454.819 308.498 C 454.286 307.558 454.023 307.576 452.632 307.576 C 452.781 307.576 452.214 307.87 449.92 309.353 L 449.92 308.082 C 450.06 307.991 450.2 307.901 450.34 307.811 C 452.862 306.183 454.003 305.607 454.302 305.607 Z M 455.982 261.435 C 456.303 261.393 456.366 261.396 457.272 261.191 C 458.074 261.006 458.9 260.823 459.763 260.638 C 460.643 260.45 461.499 260.26 462.317 260.07 C 463.061 259.896 463.178 259.878 463.389 259.855 C 464.542 260.198 464.771 260.538 465.106 261.649 C 465.648 263.262 466.344 264.708 467.253 266.253 C 467.273 267.23 467.36 267.971 467.56 269.046 C 467.733 269.956 467.806 270.706 467.806 271.478 C 467.806 271.963 467.68 272.455 467.244 273.346 C 466.671 274.64 466.364 276.216 466.316 277.904 C 466.086 278.703 465.824 279.494 465.395 280.72 C 465.004 281.858 464.544 282.803 463.92 283.754 C 463.343 284.673 462.741 285.311 461.954 285.866 C 461.44 286.361 461.176 286.393 460.334 286.149 L 460.123 286.099 L 459.995 286.101 L 459.892 286.103 C 458.455 286.15 457.052 285.686 455.199 284.59 C 453.355 283.569 452.22 282.448 451.402 280.822 L 451.187 280.406 L 450.986 280.265 L 450.856 280.174 C 450.614 280.035 450.637 280.029 450.59 279.832 C 450.531 279.586 450.55 279.287 450.67 278.717 C 450.929 277.154 451.071 275.683 451.071 274.466 C 451.071 271.3 451.498 269.025 452.52 267.183 C 453.611 265.12 454.632 263.451 455.982 261.435 Z M 455.506 263.222 C 454.416 264.877 453.61 266.21 452.618 268.087 C 451.708 269.618 451.401 271.449 451.401 274.435 C 451.401 275.735 451.244 277.349 450.982 278.961 L 451.068 279.022 L 451.508 279.873 C 452.131 281.228 452.867 281.948 454.489 282.805 C 456.155 283.814 457.064 284.174 458.132 284.075 L 458.28 284.07 L 458.421 284.068 L 458.671 284.064 L 459.161 284.18 C 459.781 283.767 460.098 283.424 460.551 282.667 C 461.112 281.829 461.489 281.066 461.832 280.043 C 462.26 278.822 462.439 278.334 462.658 277.554 C 462.748 275.79 463.104 274.015 463.742 272.512 C 464.104 271.822 464.136 271.688 464.136 271.447 C 464.136 270.77 464.085 270.208 463.926 269.39 C 463.716 268.249 463.644 267.627 463.603 266.791 C 462.773 265.33 462.13 263.984 461.541 262.258 C 461.549 262.116 461.56 261.99 461.573 261.877 C 461.47 261.9 461.323 261.935 461.105 261.986 C 460.277 262.178 459.399 262.373 458.511 262.563 C 457.655 262.746 456.845 262.925 456.052 263.108 C 455.809 263.159 455.633 263.196 455.506 263.222 Z" style="fill: rgb(255, 255, 255);"></path>
  </g>
</svg>
